<svg xmlns="http://www.w3.org/2000/svg" viewBox="0 0 1440 320"><path fill="#0099ff" fill-opacity="1" d="M0,288L26.7,282.7C53.3,277,107,267,160,266.7C213.3,267,267,277,320,245.3C373.3,213,427,139,480,128C533.3,117,587,171,640,165.3C693.3,160,747,96,800,96C853.3,96,907,160,960,176C1013.3,192,1067,160,1120,144C1173.3,128,1227,128,1280,149.3C1333.3,171,1387,213,1413,234.7L1440,256L1440,320L1413.3,320C1386.7,320,1333,320,1280,320C1226.7,320,1173,320,1120,320C1066.7,320,1013,320,960,320C906.7,320,853,320,800,320C746.7,320,693,320,640,320C586.7,320,533,320,480,320C426.7,320,373,320,320,320C266.7,320,213,320,160,320C106.7,320,53,320,27,320L0,320Z"></path></svg>