<svg xmlns="http://www.w3.org/2000/svg" viewBox="0 0 1440 320"><path fill="#0099ff" fill-opacity="1" d="M0,0L26.7,42.7C53.3,85,107,171,160,181.3C213.3,192,267,128,320,101.3C373.3,75,427,85,480,112C533.3,139,587,181,640,218.7C693.3,256,747,288,800,288C853.3,288,907,256,960,240C1013.3,224,1067,224,1120,213.3C1173.3,203,1227,181,1280,186.7C1333.3,192,1387,224,1413,240L1440,256L1440,320L1413.3,320C1386.7,320,1333,320,1280,320C1226.7,320,1173,320,1120,320C1066.7,320,1013,320,960,320C906.7,320,853,320,800,320C746.7,320,693,320,640,320C586.7,320,533,320,480,320C426.7,320,373,320,320,320C266.7,320,213,320,160,320C106.7,320,53,320,27,320L0,320Z"></path></svg>